REM DIRINDEX 1\2\5,1\2\6,1\2\7,1\2\8,1\3\9,1\3\10,1\3\11,1\4\12,1\4\13,1\4\14,1\4\15,1\4\16
REM DIRNAME cjc034,folder01,folder02,folder03,folder04,folder05,folder06,folder07,folder08,folder09,folder10,folder11,folder12,folder13,folder14,folder15
TITLE ""
FILE "1200_2_sec05_1641_1660.mp3" MP3
  TRACK 01 AUDIO
    TITLE "0:"
    INDEX 01 00:00:00
  TRACK 02 AUDIO
    TITLE "11:cjc034_03403"
    INDEX 01 00:00:15
  TRACK 03 AUDIO
    TITLE "0:"
    INDEX 01 00:01:36
  TRACK 04 AUDIO
    TITLE "11:cjc034_03404"
    INDEX 01 00:02:12
  TRACK 05 AUDIO
    TITLE "0:"
    INDEX 01 00:04:50
  TRACK 06 AUDIO
    TITLE "10:cjc034_03405"
    INDEX 01 00:05:48
  TRACK 07 AUDIO
    TITLE "0:"
    INDEX 01 00:08:11
  TRACK 08 AUDIO
    TITLE "9:cjc034_03406"
    INDEX 01 00:08:21
  TRACK 09 AUDIO
    TITLE "0:"
    INDEX 01 00:09:65
  TRACK 10 AUDIO
    TITLE "10:cjc034_03407"
    INDEX 01 00:10:49
  TRACK 11 AUDIO
    TITLE "0:"
    INDEX 01 00:12:14
  TRACK 12 AUDIO
    TITLE "9:cjc034_03408"
    INDEX 01 00:12:18
  TRACK 13 AUDIO
    TITLE "0:"
    INDEX 01 00:16:34
  TRACK 14 AUDIO
    TITLE "10:cjc034_03409"
    INDEX 01 00:17:12
  TRACK 15 AUDIO
    TITLE "0:"
    INDEX 01 00:19:54
  TRACK 16 AUDIO
    TITLE "9:cjc034_03410"
    INDEX 01 00:19:58
  TRACK 17 AUDIO
    TITLE "0:"
    INDEX 01 00:21:35
  TRACK 18 AUDIO
    TITLE "10:cjc034_03411"
    INDEX 01 00:22:17
  TRACK 19 AUDIO
    TITLE "0:"
    INDEX 01 00:23:44
  TRACK 20 AUDIO
    TITLE "9:cjc034_03412"
    INDEX 01 00:23:51
  TRACK 21 AUDIO
    TITLE "0:"
    INDEX 01 00:26:03
  TRACK 22 AUDIO
    TITLE "10:cjc034_03413"
    INDEX 01 00:26:66
  TRACK 23 AUDIO
    TITLE "0:"
    INDEX 01 00:29:70
  TRACK 24 AUDIO
    TITLE "9:cjc034_03414"
    INDEX 01 00:29:72
  TRACK 25 AUDIO
    TITLE "0:"
    INDEX 01 00:31:24
  TRACK 26 AUDIO
    TITLE "10:cjc034_03415"
    INDEX 01 00:32:05
  TRACK 27 AUDIO
    TITLE "0:"
    INDEX 01 00:34:47
  TRACK 28 AUDIO
    TITLE "9:cjc034_03416"
    INDEX 01 00:34:55
  TRACK 29 AUDIO
    TITLE "0:"
    INDEX 01 00:36:05
  TRACK 30 AUDIO
    TITLE "10:cjc034_03417"
    INDEX 01 00:36:62
  TRACK 31 AUDIO
    TITLE "0:"
    INDEX 01 00:38:33
  TRACK 32 AUDIO
    TITLE "9:cjc034_03418"
    INDEX 01 00:38:35
  TRACK 33 AUDIO
    TITLE "0:"
    INDEX 01 00:39:68
  TRACK 34 AUDIO
    TITLE "10:cjc034_03419"
    INDEX 01 00:40:52
  TRACK 35 AUDIO
    TITLE "0:"
    INDEX 01 00:42:29
  TRACK 36 AUDIO
    TITLE "9:cjc034_03420"
    INDEX 01 00:42:33
  TRACK 37 AUDIO
    TITLE "0:"
    INDEX 01 00:43:50
  TRACK 38 AUDIO
    TITLE "10:cjc034_03421"
    INDEX 01 00:44:36
  TRACK 39 AUDIO
    TITLE "0:"
    INDEX 01 00:46:62
  TRACK 40 AUDIO
    TITLE "9:cjc034_03422"
    INDEX 01 00:46:66
  TRACK 41 AUDIO
    TITLE "0:"
    INDEX 01 00:49:29
  TRACK 42 AUDIO
    TITLE "10:cjc034_03423"
    INDEX 01 00:50:13
  TRACK 43 AUDIO
    TITLE "0:"
    INDEX 01 00:52:47
  TRACK 44 AUDIO
    TITLE "9:cjc034_03424"
    INDEX 01 00:52:49
  TRACK 45 AUDIO
    TITLE "0:"
    INDEX 01 00:53:74
  TRACK 46 AUDIO
    TITLE "10:cjc034_03425"
    INDEX 01 00:54:62
  TRACK 47 AUDIO
    TITLE "0:"
    INDEX 01 00:58:44
  TRACK 48 AUDIO
    TITLE "9:cjc034_03426"
    INDEX 01 00:58:48
  TRACK 49 AUDIO
    TITLE "0:"
    INDEX 01 01:01:56
  TRACK 50 AUDIO
    TITLE "10:cjc034_03427"
    INDEX 01 01:02:38
  TRACK 51 AUDIO
    TITLE "0:"
    INDEX 01 01:04:03
  TRACK 52 AUDIO
    TITLE "9:cjc034_03428"
    INDEX 01 01:04:09
  TRACK 53 AUDIO
    TITLE "0:"
    INDEX 01 01:08:56
  TRACK 54 AUDIO
    TITLE "10:cjc034_03429"
    INDEX 01 01:09:40
  TRACK 55 AUDIO
    TITLE "0:"
    INDEX 01 01:12:17
  TRACK 56 AUDIO
    TITLE "9:cjc034_03430"
    INDEX 01 01:12:23
  TRACK 57 AUDIO
    TITLE "0:"
    INDEX 01 01:13:59
  TRACK 58 AUDIO
    TITLE "10:cjc034_03431"
    INDEX 01 01:14:43
  TRACK 59 AUDIO
    TITLE "0:"
    INDEX 01 01:15:66
  TRACK 60 AUDIO
    TITLE "9:cjc034_03432"
    INDEX 01 01:15:70
  TRACK 61 AUDIO
    TITLE "0:"
    INDEX 01 01:18:06
  TRACK 62 AUDIO
    TITLE "10:cjc034_03433"
    INDEX 01 01:18:62
  TRACK 63 AUDIO
    TITLE "0:"
    INDEX 01 01:20:53
  TRACK 64 AUDIO
    TITLE "9:cjc034_03434"
    INDEX 01 01:20:57
  TRACK 65 AUDIO
    TITLE "0:"
    INDEX 01 01:22:62
  TRACK 66 AUDIO
    TITLE "10:cjc034_03435"
    INDEX 01 01:23:42
  TRACK 67 AUDIO
    TITLE "0:"
    INDEX 01 01:26:17
  TRACK 68 AUDIO
    TITLE "9:cjc034_03436"
    INDEX 01 01:26:25
  TRACK 69 AUDIO
    TITLE "0:"
    INDEX 01 01:29:19
  TRACK 70 AUDIO
    TITLE "10:cjc034_03437"
    INDEX 01 01:29:72
  TRACK 71 AUDIO
    TITLE "0:"
    INDEX 01 01:32:68
  TRACK 72 AUDIO
    TITLE "9:cjc034_03438"
    INDEX 01 01:32:74
  TRACK 73 AUDIO
    TITLE "0:"
    INDEX 01 01:36:19
  TRACK 74 AUDIO
    TITLE "10:cjc034_03439"
    INDEX 01 01:37:03
  TRACK 75 AUDIO
    TITLE "0:"
    INDEX 01 01:38:55
  TRACK 76 AUDIO
    TITLE "9:cjc034_03440"
    INDEX 01 01:38:57
  TRACK 77 AUDIO
    TITLE "0:"
    INDEX 01 01:40:11
  TRACK 78 AUDIO
    TITLE "10:cjc034_03441"
    INDEX 01 01:40:68
  TRACK 79 AUDIO
    TITLE "0:"
    INDEX 01 01:43:13
  TRACK 80 AUDIO
    TITLE "9:cjc034_03442"
    INDEX 01 01:43:17
  TRACK 81 AUDIO
    TITLE "0:"
    INDEX 01 01:45:63
  TRACK 82 AUDIO
    TITLE "10:cjc034_03443"
    INDEX 01 01:46:45
  TRACK 83 AUDIO
    TITLE "0:"
    INDEX 01 01:48:12
  TRACK 84 AUDIO
    TITLE "9:cjc034_03444"
    INDEX 01 01:48:22
  TRACK 85 AUDIO
    TITLE "0:"
    INDEX 01 01:50:11
